<svg width="56" height="56" viewBox="0 0 56 56" fill="none" xmlns="http://www.w3.org/2000/svg">
<g id="Group">
<path id="Vector" d="M16.3333 23.3334C17.255 22.2017 18.515 21.5601 19.8333 21.5601C21.1517 21.5601 22.3767 22.2017 23.3333 23.3334" stroke="white" stroke-width="4" stroke-linecap="round" stroke-linejoin="round"/>
<path id="Vector_2" d="M32.6667 23.3334C33.5883 22.2017 34.8483 21.5601 36.1667 21.5601C37.485 21.5601 38.71 22.2017 39.6667 23.3334" stroke="#F6CD46" stroke-width="4" stroke-linecap="round" stroke-linejoin="round"/>
<path id="Vector_3" d="M42.8493 13.1508C51.0504 21.3518 51.0504 34.6482 42.8493 42.8492C34.6483 51.0502 21.3519 51.0502 13.1509 42.8492C4.9499 34.6482 4.9499 21.3517 13.1509 13.1508C21.3519 4.94975 34.6484 4.94975 42.8493 13.1508Z" stroke="white" stroke-width="4" stroke-linecap="round" stroke-linejoin="round"/>
<path id="Vector_4" d="M36.1667 34.272C36.1667 34.272 33.103 37.3333 28 37.3333C22.8947 37.3333 19.8333 34.272 19.8333 34.272" stroke="white" stroke-width="4" stroke-linecap="round" stroke-linejoin="round"/>
</g>
</svg>
