<svg xmlns="http://www.w3.org/2000/svg" width="56" height="56" fill="none"><g stroke-linecap="round" stroke-linejoin="round" stroke-width="4"><path stroke="#fff" d="M16.333 23.333c.922-1.131 2.182-1.773 3.5-1.773 1.319 0 2.544.642 3.5 1.773"/><path stroke="#F6CD46" d="M32.667 23.333c.921-1.131 2.181-1.773 3.5-1.773 1.318 0 2.543.642 3.5 1.773"/><path stroke="#fff" d="M42.85 13.15c8.2 8.202 8.2 21.498 0 29.7-8.202 8.2-21.498 8.2-29.7 0-8.2-8.202-8.2-21.498 0-29.7 8.202-8.2 21.498-8.2 29.7 0Z"/><path stroke="#fff" d="M36.167 34.272S33.103 37.333 28 37.333c-5.105 0-8.167-3.061-8.167-3.061"/></g></svg>