<svg xmlns="http://www.w3.org/2000/svg" width="56" height="56" fill="none"><path stroke="#242527" stroke-linecap="round" stroke-linejoin="round" stroke-width="4" d="M32.599 46.534H19.222a5.232 5.232 0 0 1 0-10.463h15.122a5.232 5.232 0 0 0 5.231-5.231v-.005a5.232 5.232 0 0 0-5.23-5.231h-6.399"/><path fill="#EE5446" d="M17.474 25.6s-8.14-6.688-8.14-12.792a8.14 8.14 0 0 1 8.14-8.141 8.14 8.14 0 0 1 8.141 8.14c0 6.107-8.14 12.792-8.14 12.792Z"/><path fill="#fff" d="M17.5 11a2.5 2.5 0 1 0 2.5 2.505A2.493 2.493 0 0 0 17.5 11Z"/><path stroke="#EE5446" stroke-linecap="round" stroke-linejoin="round" stroke-width="4" d="M46.666 44.077 41.743 49M41.743 44.077 46.666 49"/></svg>