<svg width="56" height="56" viewBox="0 0 56 56" fill="none" xmlns="http://www.w3.org/2000/svg">
<path d="M32.5988 46.5338H19.2218C16.3331 46.5338 13.9905 44.1911 13.9905 41.3024C13.9905 38.4138 16.3331 36.0711 19.2218 36.0711H34.3441C37.2328 36.0711 39.5755 33.7284 39.5755 30.8398V30.8351C39.5755 27.9464 37.2328 25.6038 34.3441 25.6038H27.9461" stroke="#242527" stroke-width="4" stroke-linecap="round" stroke-linejoin="round"/>
<path d="M17.4743 25.5991C17.4743 25.5991 9.33325 18.9117 9.33325 12.8077C9.33325 8.31141 12.9779 4.66675 17.4743 4.66675C21.9706 4.66675 25.6153 8.31141 25.6153 12.8077C25.6153 18.9141 17.4743 25.5991 17.4743 25.5991Z" fill="#EE5446"/>
<path d="M17.5 11C16.1144 11 15 12.1222 15 13.505C15 14.8778 16.1245 16 17.5 16C18.8855 16 19.9999 14.8778 19.9999 13.505C20.01 12.1222 18.8855 11 17.5 11Z" fill="white"/>
<path d="M46.6665 44.0767L41.7432 49" stroke="#EE5446" stroke-width="4" stroke-linecap="round" stroke-linejoin="round"/>
<path d="M41.7432 44.0767L46.6665 49" stroke="#EE5446" stroke-width="4" stroke-linecap="round" stroke-linejoin="round"/>
</svg>
