<svg xmlns="http://www.w3.org/2000/svg" width="48" height="48" fill="none"><path stroke="#E2E4EA" stroke-linecap="round" stroke-linejoin="round" stroke-miterlimit="10" stroke-width="1.5" d="M15.75 21.3v11.317M15.75 17.8v-6.417M19.833 16.75V11.5M19.833 16.633c0 2.567-1.866 4.667-4.083 4.667"/><path stroke="#E2E4EA" stroke-linecap="round" stroke-linejoin="round" stroke-miterlimit="10" stroke-width="1.5" d="M11.667 16.633c0 2.567 1.866 4.667 4.083 4.667M11.667 16.75V11.5M28 25.5c-1.983 0-3.5-1.517-3.5-3.5v-7c0-1.983 1.517-3.5 3.5-3.5M28 11.5h1.167c.7 0 1.166.467 1.166 1.167v20.416M28 25.5h2.333"/><path fill="#E2E4EA" d="M36.521 34.14v-3.758c0-.43.314-.859.731-.966a4.321 4.321 0 0 0 1.984-1.718c.73-1.289.626-2.9-.21-4.188-.939-1.396-2.505-1.825-3.966-1.61-.522.107-1.044-.108-1.148-.537-.627-1.396-1.984-2.363-3.55-2.363-1.566 0-2.923.967-3.55 2.363a1.04 1.04 0 0 1-1.148.536c-1.461-.322-3.027.215-3.966 1.611-.836 1.181-.94 2.9-.21 4.188.523.859 1.149 1.396 1.984 1.718.418.107.627.537.627.966v3.758M36.343 35.214h-12.17V37.9c0 .536.406.895 1.014.895h10.141c.609 0 1.014-.358 1.014-.895v-2.685Z"/></svg>