<svg xmlns="http://www.w3.org/2000/svg" width="54" height="41" fill="none"><path stroke="#242527" stroke-linecap="round" stroke-linejoin="round" stroke-width="4" d="M2.72 11.21c13.409-11.835 35.15-11.835 48.56 0"/><path stroke="#EE5446" stroke-linecap="round" stroke-linejoin="round" stroke-width="4" d="M27 30.333v-15.89"/><path fill="#EE5446" d="M26.992 37c-1.104 0-2 .896-1.992 2a2 2 0 0 0 4 0c0-1.104-.896-2-2.008-2Z"/><path stroke="#242527" stroke-linecap="round" stroke-linejoin="round" stroke-width="4" d="M44.288 21c-2.97-2.725-6.527-4.55-10.288-5.581M20 15.419C16.238 16.45 12.682 18.275 9.712 21M34 27.48a14.328 14.328 0 0 1 3.313 2.436M20 27.48a14.392 14.392 0 0 0-3.316 2.436"/></svg>