<svg width="54" height="41" viewBox="0 0 54 41" fill="none" xmlns="http://www.w3.org/2000/svg">
<g id="Group">
<path id="Vector" d="M2.71924 11.2093C16.1289 -0.625415 37.8709 -0.625415 51.2806 11.2093" stroke="#242527" stroke-width="4" stroke-linecap="round" stroke-linejoin="round"/>
<path id="Vector_2" d="M27 30.3334V14.4434" stroke="#EE5446" stroke-width="4" stroke-linecap="round" stroke-linejoin="round"/>
<path id="Vector_3" d="M26.992 37C25.888 37 24.9921 37.896 25.0001 39C25.0001 40.104 25.896 41 27 41C28.104 41 29 40.104 29 39C29 37.896 28.104 37 26.992 37Z" fill="#EE5446"/>
<path id="Vector_4" d="M44.2877 21C41.3173 18.2747 37.7613 16.45 34 15.4187" stroke="#242527" stroke-width="4" stroke-linecap="round" stroke-linejoin="round"/>
<path id="Vector_5" d="M19.9998 15.4187C16.2385 16.45 12.6825 18.2747 9.71216 21" stroke="#242527" stroke-width="4" stroke-linecap="round" stroke-linejoin="round"/>
<path id="Vector_6" d="M34 27.4795C35.1853 28.1212 36.31 28.9168 37.3133 29.9155" stroke="#242527" stroke-width="4" stroke-linecap="round" stroke-linejoin="round"/>
<path id="Vector_7" d="M20 27.4795C18.8147 28.1212 17.69 28.9168 16.6843 29.9155" stroke="#242527" stroke-width="4" stroke-linecap="round" stroke-linejoin="round"/>
</g>
</svg>
