<svg width="56" height="56" viewBox="0 0 56 56" fill="none" xmlns="http://www.w3.org/2000/svg">
<g id="Group">
<path id="Vector" d="M19.8334 37.3333C19.8334 37.3333 22.897 34.272 28 34.272C33.1054 34.272 36.1667 37.3333 36.1667 37.3333" stroke="#323232" stroke-width="4" stroke-linecap="round" stroke-linejoin="round"/>
<path id="Vector_2" d="M42.8493 13.1508C51.0503 21.3518 51.0503 34.6482 42.8493 42.8492C34.6483 51.0502 21.3518 51.0502 13.1509 42.8492C4.94987 34.6482 4.94987 21.3517 13.1509 13.1508C21.3519 4.94975 34.6483 4.94975 42.8493 13.1508Z" stroke="#323232" stroke-width="4" stroke-linecap="round" stroke-linejoin="round"/>
<path id="Vector_3" d="M39.6666 21.5601C38.745 22.6917 37.485 23.3334 36.1666 23.3334C34.8483 23.3334 33.6233 22.6917 32.6666 21.5601" stroke="#323232" stroke-width="4" stroke-linecap="round" stroke-linejoin="round"/>
<path id="Vector_4" d="M23.3334 21.5601C22.4117 22.6917 21.1517 23.3334 19.8334 23.3334C18.515 23.3334 17.29 22.6917 16.3334 21.5601" stroke="#323232" stroke-width="4" stroke-linecap="round" stroke-linejoin="round"/>
</g>
</svg>
