<svg xmlns="http://www.w3.org/2000/svg" width="56" height="56" fill="none"><g stroke="#323232" stroke-linecap="round" stroke-linejoin="round" stroke-width="4"><path d="M19.833 37.333s3.064-3.061 8.167-3.061c5.105 0 8.167 3.061 8.167 3.061"/><path d="M42.85 13.15c8.2 8.202 8.2 21.498 0 29.7-8.202 8.2-21.498 8.2-29.7 0-8.2-8.202-8.2-21.498 0-29.7 8.202-8.2 21.498-8.2 29.7 0Z"/><path d="M39.667 21.56c-.922 1.132-2.182 1.773-3.5 1.773-1.319 0-2.544-.641-3.5-1.773M23.333 21.56c-.921 1.132-2.181 1.773-3.5 1.773-1.318 0-2.543-.641-3.5-1.773"/></g></svg>