<svg width="25" height="24" viewBox="0 0 25 24" fill="none" xmlns="http://www.w3.org/2000/svg">
<path d="M16 12.3125V17.9375" stroke="#242527" stroke-width="1.5" stroke-miterlimit="10" stroke-linecap="round" stroke-linejoin="round"/>
<path d="M9.42712 11.6875V17.7501" stroke="#242527" stroke-width="1.5" stroke-miterlimit="10" stroke-linecap="round" stroke-linejoin="round"/>
<path d="M9.42712 9.8125V6.375" stroke="#242527" stroke-width="1.5" stroke-miterlimit="10" stroke-linecap="round" stroke-linejoin="round"/>
<path d="M13.8466 7.99411C13.9332 6.86888 14.8714 6 16 6C17.1286 6 18.0668 6.86888 18.1534 7.99411L18.3083 10.0074C18.4117 11.3519 17.3486 12.5 16 12.5C14.6514 12.5 13.5883 11.3519 13.6917 10.0074L13.8466 7.99411Z" fill="#242527"/>
<path d="M13.959 9.8125C13.959 7.8125 14.5632 6.0625 16.0736 6.0625C17.584 6.0625 18.1882 7.8125 18.1882 9.8125" fill="#242527"/>
<path d="M18.1882 9.8125C18.1882 11.1875 17.2215 12.3125 16.0736 12.3125L18.1882 9.8125Z" fill="#242527"/>
<path d="M13.959 9.8125C13.959 11.1875 14.9257 12.3125 16.0736 12.3125L13.959 9.8125Z" fill="#242527"/>
<path d="M11.5416 9.25V6.4375" stroke="#242527" stroke-width="1.5" stroke-miterlimit="10" stroke-linecap="round" stroke-linejoin="round"/>
<path d="M11.5417 9.1875C11.5417 10.5625 10.575 11.6875 9.42712 11.6875" stroke="#242527" stroke-width="1.5" stroke-miterlimit="10" stroke-linecap="round" stroke-linejoin="round"/>
<path d="M7.3125 9.1875C7.3125 10.5625 8.27917 11.6875 9.42708 11.6875" stroke="#242527" stroke-width="1.5" stroke-miterlimit="10" stroke-linecap="round" stroke-linejoin="round"/>
<path d="M7.3125 9.25V6.4375" stroke="#242527" stroke-width="1.5" stroke-miterlimit="10" stroke-linecap="round" stroke-linejoin="round"/>
</svg>
