<svg xmlns="http://www.w3.org/2000/svg" width="25" height="24" fill="none"><path stroke="#242527" stroke-linecap="round" stroke-linejoin="round" stroke-miterlimit="10" stroke-width="1.5" d="M16 12.313v5.624M9.427 11.688v6.062M9.427 9.813V6.374"/><path fill="#242527" d="M13.847 7.994a2.16 2.16 0 0 1 4.306 0l.155 2.013a2.315 2.315 0 1 1-4.616 0l.155-2.013Z"/><path fill="#242527" d="M13.959 9.813c0-2 .604-3.75 2.115-3.75 1.51 0 2.114 1.75 2.114 3.75M18.188 9.813c0 1.374-.966 2.5-2.114 2.5l2.114-2.5ZM13.959 9.813c0 1.374.967 2.5 2.115 2.5l-2.115-2.5Z"/><path stroke="#242527" stroke-linecap="round" stroke-linejoin="round" stroke-miterlimit="10" stroke-width="1.5" d="M11.542 9.25V6.437M11.542 9.188c0 1.374-.967 2.5-2.115 2.5M7.313 9.188c0 1.374.966 2.5 2.114 2.5M7.313 9.25V6.437"/></svg>