<svg width="24" height="24" viewBox="0 0 24 24" fill="none" xmlns="http://www.w3.org/2000/svg">
<g id="Ruble.1">
<g id="Group">
<path id="Vector" d="M15.079 5.02097C17.7736 7.71559 17.7736 12.0844 15.079 14.779C12.3844 17.4737 8.01556 17.4737 5.32095 14.779C2.62633 12.0844 2.62633 7.71557 5.32095 5.02097C8.01558 2.32634 12.3844 2.32634 15.079 5.02097Z" stroke="#323232" stroke-width="1.5" stroke-linecap="round" stroke-linejoin="round"/>
</g>
<g id="Group_2">
<path id="Vector_2" d="M18.5033 7.59673C21.4322 10.5257 21.4322 15.2744 18.5033 18.2033C15.5744 21.1323 10.8256 21.1323 7.89671 18.2033C4.96778 15.2744 4.96778 10.5256 7.89671 7.59673C10.8257 4.66779 15.5744 4.66779 18.5033 7.59673Z" fill="#EE5446"/>
<path id="Vector_3" d="M11.3626 16.65V9.15002H14.5109C15.6176 9.15002 16.5151 9.98919 16.5151 11.025C16.5151 12.0609 15.6176 12.9 14.5109 12.9" stroke="white" stroke-width="1.5" stroke-linecap="round" stroke-linejoin="round"/>
<path id="Vector_4" d="M14.5082 12.9H9.86652" stroke="white" stroke-width="1.5" stroke-linecap="round" stroke-linejoin="round"/>
<path id="Vector_5" d="M14.0332 15.1918H9.86652" stroke="white" stroke-width="1.5" stroke-linecap="round" stroke-linejoin="round"/>
</g>
</g>
</svg>
